<svg xmlns="http://www.w3.org/2000/svg" xml:space="preserve" fill-rule="evenodd" stroke-linejoin="round" stroke-miterlimit="2" clip-rule="evenodd" viewBox="0 0 362 78"><path fill="#ca8a04" d="M0 0h18.7v18.7H0z"/><path fill="currentColor" fill-rule="nonzero" d="M0 29.3v48h18.7V58.7h-.1V29.3H0Zm60 29.8v18.2h18.7v-1.5l-.4-7.4-.4-9L60 59ZM24 0h54.6l-.3 23.6-.4 23.7-17.9.3v-29H24V0Z"/><g><path fill="currentColor" fill-rule="nonzero" d="M112.3 0v77.3H191V0h-54.7v18.7h36v40H131V0h-18.7ZM197 0v18.7h60v10.6h-60v48h78.8l-.4-8.9-.4-9-29.6-.5-29.7-.2V48l29.7-.3 29.6-.4.4-23.7.3-23.6H197Zm86 0v77.3h18.7V48H343v29.3h18.7V0H283Zm60 18.7v10.6h-41.3V18.7H343Z"/></g></svg>